<svg width="34" height="31" viewBox="0 0 34 31" fill="none" xmlns="http://www.w3.org/2000/svg">
<path d="M30.3335 5.33338H26.0235L21.5118 0.821709C21.3573 0.666638 21.1737 0.543658 20.9714 0.45985C20.7692 0.376041 20.5524 0.333058 20.3335 0.333376H13.6668C13.4479 0.333058 13.2311 0.376041 13.0289 0.45985C12.8267 0.543658 12.643 0.666638 12.4885 0.821709L7.97683 5.33338H3.66683C1.8285 5.33338 0.333496 6.82838 0.333496 8.66671V27C0.333496 28.8384 1.8285 30.3334 3.66683 30.3334H30.3335C32.1718 30.3334 33.6668 28.8384 33.6668 27V8.66671C33.6668 6.82838 32.1718 5.33338 30.3335 5.33338ZM17.0002 25.3334C12.4835 25.3334 8.66683 21.5167 8.66683 17C8.66683 12.4834 12.4835 8.66671 17.0002 8.66671C21.5168 8.66671 25.3335 12.4834 25.3335 17C25.3335 21.5167 21.5168 25.3334 17.0002 25.3334Z" fill="white"/>
</svg>
