<svg width="112" height="36" viewBox="0 0 112 36" fill="none" xmlns="http://www.w3.org/2000/svg">
<path d="M31.0779 0H4.78122C2.14062 0 0 2.14903 0 4.8V31.2C0 33.851 2.14062 36 4.78122 36H31.0779C33.7185 36 35.8591 33.851 35.8591 31.2V4.8C35.8591 2.14903 33.7185 0 31.0779 0Z" fill="url(#paint0_linear_1945_79)"/>
<path d="M18.3507 18.1362C18.3507 19.1221 18.1798 20.0394 17.8379 20.888C17.5023 21.7367 17.0268 22.4761 16.4114 23.1064C15.7961 23.7304 15.0533 24.2202 14.1831 24.5759C13.3192 24.9316 12.3589 25.1094 11.3022 25.1094C10.2456 25.1094 9.28216 24.9316 8.41198 24.5759C7.5418 24.2202 6.79593 23.7304 6.17437 23.1064C5.55903 22.4761 5.08043 21.7367 4.73857 20.888C4.40293 20.0394 4.23511 19.1221 4.23511 18.1362C4.23511 17.1503 4.40293 16.233 4.73857 15.3844C5.08043 14.5357 5.55903 13.7994 6.17437 13.1754C6.79593 12.5514 7.5418 12.0616 8.41198 11.7059C9.28216 11.3502 10.2456 11.1724 11.3022 11.1724C12.3589 11.1724 13.3192 11.3533 14.1831 11.7152C15.0533 12.0709 15.7961 12.5608 16.4114 13.1848C17.0268 13.8088 17.5023 14.5451 17.8379 15.3937C18.1798 16.2424 18.3507 17.1565 18.3507 18.1362ZM15.1248 18.1362C15.1248 17.4623 15.0378 16.857 14.8638 16.3204C14.6897 15.7775 14.438 15.3188 14.1086 14.9444C13.7853 14.57 13.3876 14.283 12.9152 14.0833C12.4428 13.8836 11.9051 13.7838 11.3022 13.7838C10.6931 13.7838 10.1492 13.8836 9.67063 14.0833C9.19825 14.283 8.79734 14.57 8.46792 14.9444C8.14471 15.3188 7.89608 15.7775 7.72205 16.3204C7.54801 16.857 7.46099 17.4623 7.46099 18.1362C7.46099 18.8164 7.54801 19.4279 7.72205 19.9708C7.89608 20.5074 8.14471 20.9629 8.46792 21.3373C8.79734 21.7117 9.19825 21.9988 9.67063 22.1984C10.1492 22.3919 10.6931 22.4886 11.3022 22.4886C11.9051 22.4886 12.4428 22.3919 12.9152 22.1984C13.3876 21.9988 13.7853 21.7117 14.1086 21.3373C14.438 20.9629 14.6897 20.5074 14.8638 19.9708C15.0378 19.4279 15.1248 18.8164 15.1248 18.1362ZM31.9354 24.9596H29.4927C29.2192 24.9596 28.9924 24.8972 28.8121 24.7724C28.6381 24.6414 28.5169 24.476 28.4485 24.2764L27.6467 21.8989H22.4815L21.6797 24.2764C21.6176 24.4511 21.4964 24.6102 21.3161 24.7537C21.1359 24.891 20.9152 24.9596 20.6542 24.9596H18.1928L23.4512 11.3221H26.6771L31.9354 24.9596ZM23.2088 19.7461H26.9195L25.6701 16.0115C25.5893 15.7744 25.493 15.4967 25.3811 15.1784C25.2754 14.854 25.1698 14.5045 25.0641 14.1301C24.9647 14.5108 24.8621 14.8633 24.7564 15.1878C24.6508 15.5123 24.5513 15.7931 24.4581 16.0302L23.2088 19.7461Z" fill="white"/>
<path d="M57.1403 18.5196C57.1403 19.4991 56.9777 20.4077 56.6525 21.2454C56.3273 22.077 55.8702 22.7978 55.2811 23.4076C54.6921 24.0174 53.9834 24.4948 53.155 24.8398C52.3267 25.1786 51.4094 25.348 50.4031 25.348C49.3968 25.348 48.4764 25.1786 47.6419 24.8398C46.8136 24.4948 46.1018 24.0174 45.5066 23.4076C44.9176 22.7978 44.4605 22.077 44.1353 21.2454C43.81 20.4077 43.6475 19.4991 43.6475 18.5196C43.6475 17.5402 43.81 16.6347 44.1353 15.8031C44.4605 14.9654 44.9176 14.2415 45.5066 13.6317C46.1018 13.0218 46.8136 12.5475 47.6419 12.2087C48.4764 11.8638 49.3968 11.6913 50.4031 11.6913C51.4094 11.6913 52.3267 11.8638 53.155 12.2087C53.9834 12.5537 54.6921 13.0311 55.2811 13.6409C55.8702 14.2446 56.3273 14.9654 56.6525 15.8031C56.9777 16.6347 57.1403 17.5402 57.1403 18.5196ZM54.6 18.5196C54.6 17.7866 54.5019 17.1305 54.3055 16.5515C54.1153 15.9663 53.8392 15.4704 53.4772 15.0639C53.1151 14.6573 52.6733 14.3463 52.1518 14.1306C51.6364 13.915 51.0535 13.8072 50.4031 13.8072C49.7527 13.8072 49.1667 13.915 48.6452 14.1306C48.1236 14.3463 47.6787 14.6573 47.3106 15.0639C46.9485 15.4704 46.6694 15.9663 46.473 16.5515C46.2767 17.1305 46.1785 17.7866 46.1785 18.5196C46.1785 19.2527 46.2767 19.9118 46.473 20.497C46.6694 21.076 46.9485 21.5688 47.3106 21.9754C47.6787 22.3758 48.1236 22.6838 48.6452 22.8994C49.1667 23.115 49.7527 23.2228 50.4031 23.2228C51.0535 23.2228 51.6364 23.115 52.1518 22.8994C52.6733 22.6838 53.1151 22.3758 53.4772 21.9754C53.8392 21.5688 54.1153 21.076 54.3055 20.497C54.5019 19.9118 54.6 19.2527 54.6 18.5196ZM58.9683 25.2002V15.7199H60.3581C60.6526 15.7199 60.8459 15.8585 60.9379 16.1357L61.0944 16.8842C61.2845 16.687 61.484 16.5084 61.6926 16.3482C61.9074 16.188 62.1313 16.0494 62.3645 15.9324C62.6038 15.8154 62.8584 15.726 63.1284 15.6645C63.3984 15.6029 63.693 15.5721 64.012 15.5721C64.5274 15.5721 64.9845 15.6614 65.3834 15.84C65.7822 16.0125 66.1136 16.259 66.3774 16.5792C66.6474 16.8934 66.8499 17.2722 66.9848 17.7158C67.126 18.1532 67.1965 18.6366 67.1965 19.1664V25.2002H64.9232V19.1664C64.9232 18.5874 64.7882 18.1408 64.5182 17.8266C64.2544 17.5064 63.8555 17.3462 63.3217 17.3462C62.929 17.3462 62.5609 17.4354 62.2172 17.6141C61.8736 17.7928 61.5485 18.036 61.2416 18.3441V25.2002H58.9683ZM73.3329 15.5721C73.9281 15.5721 74.4741 15.6676 74.9711 15.8585C75.4744 16.0494 75.9069 16.3298 76.2689 16.6994C76.6309 17.0628 76.9132 17.5125 77.1156 18.0484C77.3181 18.5782 77.4194 19.1849 77.4194 19.8687C77.4194 20.0411 77.4102 20.186 77.3918 20.303C77.3796 20.4138 77.3519 20.5031 77.3089 20.5709C77.2721 20.6325 77.22 20.6787 77.1525 20.7095C77.085 20.7341 76.9991 20.7465 76.8947 20.7465H71.0595C71.127 21.7198 71.3879 22.4343 71.8418 22.8902C72.2959 23.346 72.8973 23.5739 73.6458 23.5739C74.0139 23.5739 74.33 23.5308 74.5938 23.4446C74.8638 23.3583 75.097 23.2629 75.2933 23.1581C75.4958 23.0534 75.6706 22.958 75.8179 22.8717C75.9714 22.7854 76.1186 22.7423 76.2597 22.7423C76.3517 22.7423 76.4316 22.7608 76.499 22.7978C76.5665 22.8347 76.6248 22.887 76.6739 22.9548L77.3365 23.7864C77.085 24.0821 76.8027 24.3316 76.4898 24.5349C76.1768 24.732 75.8486 24.8921 75.505 25.0154C75.1675 25.1324 74.8209 25.2155 74.4649 25.2648C74.1152 25.3142 73.7746 25.3388 73.4433 25.3388C72.7868 25.3388 72.1763 25.231 71.6117 25.0154C71.0473 24.7936 70.5564 24.4702 70.1391 24.0452C69.722 23.614 69.3936 23.0842 69.1543 22.4559C68.915 21.8214 68.7954 21.0884 68.7954 20.2568C68.7954 19.61 68.8997 19.0032 69.1083 18.4365C69.317 17.8636 69.6145 17.3678 70.0011 16.9488C70.3938 16.5238 70.8693 16.188 71.4277 15.9417C71.9922 15.6953 72.6273 15.5721 73.3329 15.5721ZM73.3789 17.2076C72.7162 17.2076 72.1978 17.3955 71.8234 17.7712C71.4492 18.1469 71.2099 18.6798 71.1055 19.3697H75.3761C75.3761 19.074 75.3363 18.7968 75.2565 18.5381C75.1767 18.2733 75.054 18.0423 74.8883 17.8451C74.7226 17.648 74.5141 17.494 74.2624 17.3831C74.011 17.2661 73.7164 17.2076 73.3789 17.2076Z" fill="#44A2C0"/>
<path d="M91.0906 25.1998H89.1762C88.9614 25.1998 88.7836 25.1475 88.6424 25.0427C88.5075 24.9318 88.4092 24.7963 88.3479 24.6361L87.3539 21.9103H81.8408L80.8468 24.6361C80.7976 24.7779 80.6995 24.9072 80.5522 25.0242C80.4111 25.1412 80.2362 25.1998 80.0276 25.1998H78.104L83.3318 11.8387H85.8628L91.0906 25.1998ZM82.4758 20.1547H86.7188L85.0989 15.7103C85.0253 15.5131 84.9425 15.2821 84.8504 15.0173C84.7645 14.7462 84.6787 14.4537 84.5927 14.1395C84.5068 14.4537 84.421 14.7462 84.335 15.0173C84.2553 15.2884 84.1754 15.5255 84.0957 15.7288L82.4758 20.1547ZM92.3324 28.2952V15.7195H93.7222C93.8695 15.7195 93.9952 15.7534 94.0996 15.8212C94.2039 15.889 94.2713 15.9936 94.3021 16.1353L94.4861 17.0131C94.8666 16.5757 95.3022 16.2216 95.7931 15.9505C96.2901 15.6795 96.8699 15.544 97.5326 15.544C98.048 15.544 98.5174 15.6517 98.9408 15.8674C99.3703 16.083 99.7384 16.3972 100.045 16.8099C100.358 17.2164 100.597 17.7215 100.763 18.3252C100.935 18.9227 101.021 19.6096 101.021 20.3857C101.021 21.0941 100.926 21.7501 100.736 22.3539C100.545 22.9576 100.272 23.4811 99.9164 23.9247C99.5666 24.3682 99.1402 24.7162 98.6371 24.9688C98.1401 25.2151 97.5817 25.3384 96.962 25.3384C96.4281 25.3384 95.974 25.2583 95.5998 25.0981C95.2316 24.9318 94.9003 24.7039 94.6058 24.4144V28.2952H92.3324ZM96.7503 17.3458C96.2778 17.3458 95.8728 17.4474 95.5354 17.6507C95.204 17.8479 94.8942 18.1281 94.6058 18.4915V22.7419C94.8635 23.0622 95.1427 23.2871 95.4433 23.4165C95.7502 23.5397 96.0784 23.6013 96.4281 23.6013C96.7718 23.6013 97.0816 23.5366 97.3577 23.4072C97.6399 23.2779 97.8763 23.0807 98.0664 22.8159C98.2628 22.551 98.4131 22.2184 98.5174 21.8179C98.6218 21.4114 98.6739 20.934 98.6739 20.3857C98.6739 19.8313 98.6279 19.3632 98.5358 18.9813C98.4499 18.5932 98.3241 18.279 98.1585 18.0388C97.9928 17.7985 97.7903 17.623 97.551 17.5121C97.3178 17.4012 97.0509 17.3458 96.7503 17.3458ZM102.741 28.2952V15.7195H104.13C104.278 15.7195 104.403 15.7534 104.508 15.8212C104.612 15.889 104.68 15.9936 104.71 16.1353L104.894 17.0131C105.275 16.5757 105.71 16.2216 106.201 15.9505C106.698 15.6795 107.278 15.544 107.941 15.544C108.456 15.544 108.926 15.6517 109.349 15.8674C109.778 16.083 110.147 16.3972 110.453 16.8099C110.766 17.2164 111.006 17.7215 111.171 18.3252C111.343 18.9227 111.429 19.6096 111.429 20.3857C111.429 21.0941 111.334 21.7501 111.144 22.3539C110.954 22.9576 110.68 23.4811 110.325 23.9247C109.975 24.3682 109.548 24.7162 109.045 24.9688C108.548 25.2151 107.99 25.3384 107.37 25.3384C106.836 25.3384 106.382 25.2583 106.008 25.0981C105.64 24.9318 105.309 24.7039 105.014 24.4144V28.2952H102.741ZM107.159 17.3458C106.686 17.3458 106.281 17.4474 105.944 17.6507C105.612 17.8479 105.302 18.1281 105.014 18.4915V22.7419C105.272 23.0622 105.551 23.2871 105.852 23.4165C106.158 23.5397 106.487 23.6013 106.836 23.6013C107.18 23.6013 107.49 23.5366 107.766 23.4072C108.048 23.2779 108.284 23.0807 108.475 22.8159C108.671 22.551 108.821 22.2184 108.926 21.8179C109.03 21.4114 109.082 20.934 109.082 20.3857C109.082 19.8313 109.036 19.3632 108.944 18.9813C108.858 18.5932 108.732 18.279 108.567 18.0388C108.401 17.7985 108.199 17.623 107.959 17.5121C107.726 17.4012 107.459 17.3458 107.159 17.3458Z" fill="#314793"/>
<defs>
<linearGradient id="paint0_linear_1945_79" x1="30.0094" y1="0.0138415" x2="17.9113" y2="35.9939" gradientUnits="userSpaceOnUse">
<stop stop-color="#2A255C"/>
<stop offset="0.514151" stop-color="#3558AE"/>
<stop offset="1" stop-color="#4BC0C8"/>
</linearGradient>
</defs>
</svg>
